<svg xmlns="http://www.w3.org/2000/svg" xmlns:xlink="http://www.w3.org/1999/xlink" width="165.61" height="45.848" viewBox="0 0 165.61 45.848"><defs><style>.a{fill:#2d2d2d;}.b{fill:#525252;}.c{fill:url(#a);}</style><radialGradient id="a" cx="0.478" cy="0.5" r="0.662" gradientTransform="translate(0 0.187) scale(1 0.626)" gradientUnits="objectBoundingBox"><stop offset="0" stop-color="#f18f34"/><stop offset="0.595" stop-color="#e95f32"/><stop offset="1" stop-color="#e3312d"/></radialGradient></defs><g transform="translate(41.517 -2430.083)"><path class="a" d="M101.584-2278.064c-.733-.146-.879-.22-.733-1.025.147-.88.44-1.026,1.026-.953a56.213,56.213,0,0,0,6.521.512c2.565,0,4.47.146,4.69-1.466.22-1.392-.513-1.465-4.323-1.611-5.349-.22-7.108-.879-6.521-4.47.586-3.737,4.323-3.884,8.72-3.884,2.711,0,5.935.293,6.595.366.733.146.806.219.659,1.026-.147.879-.366,1.025-1.026.952a55.6,55.6,0,0,0-5.935-.439c-2.271,0-3.884-.147-4.177,1.319-.22,1.245.44,1.319,3.81,1.466,4.909.073,7.474.292,6.888,4.25-.586,3.517-3.371,4.4-9.306,4.4A53.784,53.784,0,0,1,101.584-2278.064Zm121.194-1.612.293-8.793c0-.44-.293-.586-.806-.586h-.44c-.513,0-.879.146-1.026.586l-3.3,9.086a2.378,2.378,0,0,1-2.565,1.466h-4.4c-1.319,0-2.052-.44-2.052-1.466l-.366-9.086c0-.44-.366-.586-.806-.586h-.44c-.513,0-.806.146-.953.586l-2.784,9.525c-.22.806-.366,1.1-1.392,1.1-1.172,0-1.392-.147-1.172-.953l3.151-10.625c.293-1.026,1.246-1.465,2.565-1.465h4.543c1.319,0,2.052.439,2.052,1.465l.293,9.013c0,.513.293.66.806.66h.44c.513,0,.879-.146,1.026-.66l3.224-9.013a2.378,2.378,0,0,1,2.565-1.465h4.689c1.319,0,2.052.439,2.052,1.465l-.22,9.965c-.073,1.465-.366,1.612-2.565,1.612C222.852-2277.844,222.779-2278.137,222.779-2279.676Zm-30.628-.879c-.22-.586-.293-.806-1.026-.806h-8.133c-.806,0-.879.22-1.246.806-1.832,2.638-1.759,2.711-3.371,2.711-1.1,0-1.465-.22-.953-.953l7.694-10.844a2.529,2.529,0,0,1,2.491-1.245h4.323c1.319,0,1.685.293,2.052,1.245l4.03,10.039c.513,1.465.22,1.759-1.978,1.759-3.223,0-3.15,0-3.883-2.711Zm-4.909-8.061-3.224,4.69c-.293.366-.147.659.366.659h6.155c.513,0,.659-.293.513-.659l-1.685-4.69c-.147-.439-.366-.512-.879-.512h-.22A.984.984,0,0,0,187.241-2288.615Zm-34.878,8.94.147-.953c.293-2.051-.953-2.345-3-2.418l-3.59-.074c-.659,0-.879.146-.953.733l-.44,3c-.22,1.392-.586,1.539-2.271,1.539h-.586c-1.832,0-2.125-.147-1.905-1.539l1.539-9.745c.22-1.392.586-1.758,2.418-1.758h8.939c3.883,0,6.008.659,5.569,3.224-.293,1.832-1.392,2.418-3.664,2.931-.513.146-.806.146-.879.512-.073.44.147.44.659.513,1.759.293,3.3.366,3,2.491l-.147,1.758c-.147,1.466-.147,1.612-2.418,1.612-2.565,0-2.638-.293-2.418-1.832Zm-6.521-8.719-.366,3.077c-.073.44.073.659.733.659l3.81-.146c1.612-.073,2.638-.293,2.931-2.2s-.953-2.125-2.784-2.125h-3.3a.925.925,0,0,0-1.026.733Zm16.047,10.478c-1.832,0-2.125-.366-1.905-1.759l1.539-9.526c.22-1.392.586-1.758,2.418-1.758h12.383v.073c.733,0,.733.293.659.953-.147.806-.293,1.026-.953,1.026h-8.72a.919.919,0,0,0-.68.19.921.921,0,0,0-.346.615l-.293,1.686c-.073.513.073.806.733.806h6.082c.733,0,.733.293.659.952-.147.806-.293,1.026-1.026,1.026h-6.082a.921.921,0,0,0-.68.19.923.923,0,0,0-.346.616l-.366,2.125c-.073.513.073.806.733.806H175c.733,0,.733.292.659.952-.147.806-.22,1.026-.953,1.026Zm-34.145,0c-1.832,0-2.125-.146-1.905-1.539l1.392-8.646c.073-.513-.073-.806-.733-.806h-5.276c-.733,0-.806-.22-.659-1.026.073-.659.293-.952.953-.952h17.073c.733,0,.733.293.659.952-.147.806-.293,1.026-.953,1.026h-5.276a.921.921,0,0,0-.68.19.922.922,0,0,0-.346.616l-1.392,8.646c-.22,1.392-.586,1.539-2.271,1.539Z" transform="translate(-103.888 4737.953)"/><path class="b" d="M100.8-2282.9c.073-.22.073-.293.293-.293,1.026-.146,1.465-.146,1.612-.806l1.026-6.521c.073-.366.073-.44.659-.44.513,0,.513.146.44.44l-.953,6.082c-.22,1.539-1.465,1.832-2.858,1.832C100.8-2282.607,100.8-2282.68,100.8-2282.9Zm4.763-3.664c.293-1.612.879-2.564,3.664-2.564,2.638,0,3.077.806,2.858,2.271,0,.293-.073.586-.806.586h-4.4a.267.267,0,0,0-.216.077.269.269,0,0,0-.077.216c-.22,1.319,1.1,1.319,2.418,1.319a17.575,17.575,0,0,0,1.905-.146c.293-.073.44-.073.366.293-.073.293-.147.366-.366.366a13.381,13.381,0,0,1-1.978.146C106.076-2284,105.27-2284.585,105.563-2286.564Zm1.246-.512c-.073.146.073.22.22.22h3.737c.147,0,.293-.073.293-.22.147-1.173-.293-1.466-1.905-1.466C107.468-2288.542,106.955-2288.249,106.808-2287.076Zm6.082,1.685.806-4.836c0-.293.073-.44.586-.44s.513.146.44.44l-.147.953c-.073.22.073.292.293.292h1.978c.293,0,.366.074.293.293s-.073.293-.44.293H114.8a.375.375,0,0,0-.366.293l-.44,2.711c-.147.733.586.733,1.172.733.293,0,.806-.073,1.026-.073.293,0,.44-.074.366.219s-.147.367-.44.367a7.2,7.2,0,0,1-1.392.073c-1.539,0-1.978-.44-1.832-1.319Z" transform="translate(-100.979 4725.935)"/><path class="c" d="M13.421,44.314S1.184,40.137.012,35.887c-.3-1.054,5.212-.836,8.736-.618,1.619.1,2.818.2,2.842.178,6.521.586,8.72.586,10.112-1.319,1.612-2.345.879-5.642-.073-9.745,0,0-1.832-7.694-.293-8.426,1.465-.733,7.4,5.862,9.452,11.138,2.271,5.789,3.151,13.263.586,15.9-1.638,1.638-4.38,2.853-8.573,2.853a33.969,33.969,0,0,1-9.379-1.534ZM5.947,18.448C3.9,12.586,3.382,5.039,6.093,2.548c2.784-2.565,8.353-3.883,18.025-.586,0,0,11.944,4.763,12.969,9.013.293,1.685-11.65,0-11.65,0-6.521-.879-8.72-.953-10.185.879-1.685,2.271-1.1,5.569-.293,9.745,0,0,1.465,7.84-.073,8.426a.531.531,0,0,1-.2.035C12.969,30.061,7.7,23.58,5.947,18.448Z" transform="translate(-41.517 2430.083)"/></g></svg>